P2
# 
48 48
255
254 254 254 254 254 254 254 254 254 254 254 254 254 254 254 254 254 254 254 254 254 254 254 254 254 254 254 254 254 254 254 254 254 254 254 254 254 254 254 254 254 254 254 254 254 254 254 254 
254 254 254 254 254 254 254 254 254 254 254 254 254 254 254 254 254 254 254 254 254 254 254 254 254 254 254 254 254 254 254 254 254 254 254 254 254 254 254 254 254 254 254 254 254 254 254 254 
254 254 254 254 254 254 254 254 254 254 254 254 254 254 254 254 254 254 254 254 254 254 254 254 254 254 254 254 254 254 254 254 254 254 254 254 254 254 254 254 254 254 254 254 254 254 254 254 
254 254 254 254 254 254 254 254 254 254 254 254 254 254 254 254 254 254 254 254 254 254 254 254 254 254 254 254 254 254 254 254 254 254 254 254 254 254 254 254 254 254 254 254 254 254 254 254 
254 254 254 254 254 254 254 254 254 254 254 254 254 254 254 254 254 254 254 254 254 254 254 254 254 254 254 254 254 254 254 254 254 254 254 254 254 254 254 254 254 254 254 254 254 254 254 254 
254 254 254 254 254 254 254 254 254 254 254 254 254 254 254 254 254 254 254 254 254 254 254 254 222 250 254 254 254 254 254 254 254 254 254 254 254 254 254 254 254 254 254 254 254 254 254 254 
254 254 254 254 254 254 254 254 254 254 209 142 121 113 151 246 254 254 254 254 254 254 254 171 92 77 246 254 254 254 254 254 254 254 254 254 254 254 254 254 254 254 254 254 254 254 254 254 
254 254 254 254 254 254 254 254 254 187 108 122 143 137 108 108 184 254 254 254 254 254 254 119 42 82 238 254 254 254 254 254 254 254 254 254 254 254 254 254 254 254 254 254 254 254 254 254 
254 254 254 254 254 254 254 254 242 105 113 141 143 135 148 140 108 187 254 254 254 254 226 92 22 190 254 254 254 254 254 254 254 254 254 254 254 254 254 254 254 254 254 254 254 254 254 254 
254 254 254 254 254 254 254 254 111 114 137 127 122 119 115 119 119 105 184 254 254 254 158 30 63 254 254 254 254 254 254 254 254 254 254 254 254 254 254 254 254 254 254 254 254 254 254 254 
254 254 254 254 254 254 254 137 108 141 122 124 130 156 148 156 156 137 105 146 254 254 120 30 190 254 254 254 254 254 254 254 254 254 254 254 254 254 254 254 254 254 254 254 254 254 254 254 
254 254 254 254 254 254 222 108 137 122 130 153 122 130 119 102 102 105 102 102 134 254 103 42 254 254 254 210 186 190 190 201 254 254 254 254 254 254 254 254 254 254 254 254 254 254 254 254 
254 254 254 254 254 254 128 122 124 140 115 153 113 108 113 134 202 234 222 142 102 134 102 118 254 205 142 131 126 124 119 114 110 127 152 226 254 254 254 254 254 254 254 254 254 254 254 254 
254 254 254 254 254 205 113 124 130 141 121 141 141 182 246 254 254 254 254 254 184 119 118 141 171 141 141 142 141 139 133 126 122 114 112 101 122 201 254 254 254 254 254 254 254 254 254 254 
254 254 254 254 254 116 127 148 127 115 124 153 234 254 217 164 127 133 133 127 155 164 149 141 148 153 152 155 152 148 145 138 133 127 122 110 98 89 129 226 254 254 254 254 254 254 254 254 
254 254 254 254 186 127 135 113 117 151 230 254 230 155 133 141 150 152 152 152 152 157 157 160 163 160 168 160 155 152 148 145 141 133 127 122 110 98 89 96 205 254 254 254 254 254 254 254 
254 254 254 254 144 124 117 184 242 254 254 230 141 138 150 155 157 173 176 165 165 168 168 168 173 170 171 171 160 157 152 150 145 138 131 122 110 101 94 77 85 184 254 254 254 254 254 254 
254 254 254 209 124 198 254 254 254 254 254 139 145 157 173 196 217 210 210 184 176 176 176 176 178 176 174 168 164 160 157 150 150 141 136 127 114 101 94 81 76 77 230 254 254 254 254 254 
254 254 254 209 205 254 254 254 254 254 177 145 157 192 217 234 222 210 205 181 181 181 180 181 180 178 174 171 166 160 155 152 148 148 136 127 122 110 98 85 77 77 116 254 254 254 254 254 
254 254 254 254 254 254 254 254 254 218 144 155 181 214 226 226 214 201 189 184 188 184 181 180 180 178 176 170 164 162 157 155 152 145 141 136 126 114 101 89 77 77 85 184 254 254 254 254 
254 254 254 254 254 254 254 254 254 155 148 160 201 217 226 214 221 189 188 201 191 187 184 184 184 178 174 170 164 162 157 155 149 145 139 131 126 117 110 95 81 77 80 108 254 254 254 254 
254 254 254 254 254 254 254 254 215 141 157 173 214 218 214 218 197 193 197 197 184 184 184 182 178 178 174 168 164 157 155 150 146 143 139 131 124 119 110 94 81 76 77 76 254 254 254 254 
254 254 254 254 254 254 254 254 164 141 157 192 217 218 214 201 205 193 191 191 187 184 184 182 178 174 171 166 162 160 155 150 146 141 139 130 126 114 111 97 81 76 75 75 254 254 254 254 
254 254 254 254 254 254 254 254 133 150 162 195 210 210 201 205 191 188 191 187 187 182 182 180 178 174 168 166 163 160 157 150 142 142 133 127 119 117 106 97 81 76 68 72 254 254 254 254 
254 254 254 254 254 254 254 230 136 150 162 201 205 197 197 196 191 188 191 183 184 182 182 178 174 168 166 162 160 157 151 149 143 139 131 127 122 114 108 97 81 74 70 72 254 254 254 254 
254 254 254 254 254 254 254 201 136 149 160 197 197 191 191 187 183 187 184 182 182 178 178 174 171 168 164 160 160 155 150 143 142 136 130 127 119 112 104 91 81 76 68 70 254 254 254 254 
254 254 254 254 254 254 254 201 139 150 162 187 187 187 191 182 183 183 183 178 178 173 174 173 168 164 164 160 157 151 149 142 139 133 132 125 117 110 101 85 76 72 68 110 254 254 254 254 
254 254 254 254 254 254 254 201 133 148 164 179 186 187 179 183 178 178 178 178 170 174 173 168 168 164 160 160 155 150 147 143 134 133 130 120 117 106 93 84 74 72 66 146 254 254 254 254 
254 254 254 254 254 254 254 215 133 145 157 170 183 183 173 173 173 174 173 173 173 168 168 166 168 160 160 155 151 143 141 139 134 130 125 120 112 101 89 77 72 64 64 194 254 254 254 254 
254 254 254 254 254 254 254 254 130 139 153 162 169 179 173 166 169 169 170 168 166 168 168 168 164 163 159 155 149 141 139 134 130 126 124 117 107 93 84 80 70 66 80 254 254 254 254 254 
254 254 254 254 254 254 254 254 162 133 145 153 164 166 169 164 164 164 166 168 168 168 164 163 155 159 151 147 143 139 134 132 126 124 120 107 104 93 81 68 67 64 146 254 254 254 254 254 
254 254 254 254 254 254 254 254 214 126 141 147 155 157 157 157 160 164 163 160 160 163 163 159 160 151 151 147 143 139 133 126 125 120 115 101 94 80 75 68 67 64 221 254 254 254 254 254 
254 254 254 254 254 254 254 254 254 133 132 136 147 148 155 153 155 155 159 159 160 159 157 155 151 151 147 143 138 134 134 124 117 111 106 97 91 80 72 62 64 127 254 254 254 254 254 254 
254 254 254 254 254 254 254 254 254 218 130 133 136 143 145 148 153 153 151 155 155 155 155 151 151 141 143 134 130 126 122 119 111 104 99 91 84 76 68 62 62 221 254 254 254 254 254 254 
254 254 254 254 254 254 254 254 254 254 162 124 129 132 138 141 143 147 148 147 147 151 147 143 142 134 134 130 122 120 112 107 104 95 97 91 84 76 64 64 113 221 230 246 254 254 254 254 
254 254 254 254 254 254 254 254 254 254 234 130 124 124 129 133 136 138 138 138 138 138 138 134 134 130 124 122 119 115 111 107 104 97 91 87 80 68 64 72 134 154 170 190 214 238 250 254 
254 254 254 254 254 254 254 254 254 254 254 234 128 119 124 124 125 128 132 126 126 122 126 122 124 122 115 111 107 111 99 101 99 94 91 84 74 64 64 39 2 22 70 114 150 178 214 238 
254 254 254 254 254 254 254 254 254 254 254 254 214 128 112 117 119 117 117 120 120 119 117 111 111 104 107 101 101 99 95 94 95 92 88 80 72 68 51 2 2 2 2 6 41 106 166 198 
254 254 254 254 254 254 254 254 254 254 254 254 254 230 117 107 107 107 107 107 107 104 104 99 99 95 95 94 94 95 91 91 87 88 80 75 68 59 2 2 2 2 2 2 10 16 90 166 
254 254 254 254 254 254 254 254 254 254 254 254 254 246 208 111 104 104 99 101 97 99 93 89 87 87 87 91 87 91 91 88 88 80 75 75 62 2 2 2 2 2 2 2 2 16 63 150 
254 254 254 254 254 254 254 254 254 254 254 254 254 238 210 118 51 92 91 91 91 87 87 91 87 91 84 91 87 87 87 87 88 80 72 46 2 2 2 2 2 2 2 2 2 63 114 162 
254 254 254 254 254 254 254 254 254 254 254 254 254 238 202 158 39 14 59 87 87 84 64 14 2 2 16 50 68 75 84 84 76 51 16 2 2 2 2 2 2 2 2 10 82 118 154 198 
254 254 254 254 254 254 254 254 254 254 254 254 254 246 218 178 125 56 10 2 26 27 2 2 2 2 2 2 2 2 2 2 2 2 2 2 2 2 2 2 2 10 70 110 134 166 198 234 
254 254 254 254 254 254 254 254 254 254 254 254 254 254 238 215 178 150 122 70 27 10 2 2 2 2 2 2 2 2 2 2 2 2 2 2 2 2 10 41 82 114 138 162 194 218 238 250 
254 254 254 254 254 254 254 254 254 254 254 254 254 254 254 246 230 214 190 166 138 114 90 56 46 46 42 42 30 26 22 10 10 16 30 56 82 106 122 125 150 174 198 222 238 250 254 254 
254 254 254 254 254 254 254 254 254 254 254 254 254 254 254 254 254 250 242 226 214 202 178 162 154 150 158 162 162 158 158 166 166 178 174 174 186 182 190 194 210 226 242 250 254 254 254 254 
254 254 254 254 254 254 254 254 254 254 254 254 254 254 254 254 254 254 254 254 250 242 242 230 222 218 226 222 222 222 218 226 226 234 234 234 238 238 238 246 250 254 254 254 254 254 254 254 
254 254 254 254 254 254 254 254 254 254 254 254 254 254 254 254 254 254 254 254 254 254 254 254 254 254 250 250 246 250 250 254 254 254 254 254 254 254 254 254 254 254 254 254 254 254 254 254 
